<svg xmlns="http://www.w3.org/2000/svg" xmlns:xlink="http://www.w3.org/1999/xlink" preserveAspectRatio="xMidYMid" width="10" height="8" viewBox="0 0 10 8">
  <defs>
    <style>

      .cls-2 {
        fill: #8d8d8d;
      }
    </style>
  </defs>
  <path d="M9.836,3.624 C9.836,3.624 6.227,0.152 6.227,0.152 C6.124,0.052 5.987,-0.003 5.840,-0.003 C5.694,-0.003 5.556,0.052 5.453,0.152 C5.453,0.152 5.126,0.467 5.126,0.467 C5.023,0.566 4.966,0.698 4.966,0.839 C4.966,0.980 5.023,1.117 5.126,1.216 C5.126,1.216 7.231,3.247 7.231,3.247 C7.231,3.247 0.542,3.247 0.542,3.247 C0.240,3.247 0.002,3.473 0.002,3.763 C0.002,3.763 0.002,4.210 0.002,4.210 C0.002,4.500 0.240,4.750 0.542,4.750 C0.542,4.750 7.255,4.750 7.255,4.750 C7.255,4.750 5.126,6.792 5.126,6.792 C5.023,6.891 4.966,7.020 4.966,7.161 C4.966,7.301 5.023,7.432 5.126,7.531 C5.126,7.531 5.453,7.845 5.453,7.845 C5.556,7.944 5.694,7.998 5.840,7.998 C5.987,7.998 6.124,7.944 6.227,7.844 C6.227,7.844 9.836,4.372 9.836,4.372 C9.940,4.272 9.996,4.140 9.996,3.998 C9.996,3.857 9.940,3.724 9.836,3.624 " id="path-1" class="cls-2" fill-rule="evenodd"/>
</svg>
