<svg xmlns="http://www.w3.org/2000/svg" xmlns:xlink="http://www.w3.org/1999/xlink" preserveAspectRatio="xMidYMid" width="16" height="16" viewBox="0 0 16 16">
  <defs>
    <style>

      .cls-2 {
        fill: #bb99b7;
      }
    </style>
  </defs>
  <path d="M14.125,15.999 C14.125,15.999 1.875,15.999 1.875,15.999 C0.841,15.999 -0.000,15.158 -0.000,14.124 C-0.000,14.124 -0.000,3.124 -0.000,3.124 C-0.000,2.090 0.841,1.249 1.875,1.249 C1.875,1.249 2.625,1.249 2.625,1.249 C2.625,1.249 2.625,-0.001 2.625,-0.001 C2.625,-0.001 3.875,-0.001 3.875,-0.001 C3.875,-0.001 3.875,1.249 3.875,1.249 C3.875,1.249 12.125,1.249 12.125,1.249 C12.125,1.249 12.125,-0.001 12.125,-0.001 C12.125,-0.001 13.375,-0.001 13.375,-0.001 C13.375,-0.001 13.375,1.249 13.375,1.249 C13.375,1.249 14.125,1.249 14.125,1.249 C15.159,1.249 16.000,2.090 16.000,3.124 C16.000,3.124 16.000,14.124 16.000,14.124 C16.000,15.158 15.159,15.999 14.125,15.999 ZM14.750,3.124 C14.750,2.780 14.470,2.499 14.125,2.499 C14.125,2.499 13.375,2.499 13.375,2.499 C13.375,2.499 13.375,3.749 13.375,3.749 C13.375,3.749 12.125,3.749 12.125,3.749 C12.125,3.749 12.125,2.499 12.125,2.499 C12.125,2.499 3.875,2.499 3.875,2.499 C3.875,2.499 3.875,3.749 3.875,3.749 C3.875,3.749 2.625,3.749 2.625,3.749 C2.625,3.749 2.625,2.499 2.625,2.499 C2.625,2.499 1.875,2.499 1.875,2.499 C1.530,2.499 1.250,2.780 1.250,3.124 C1.250,3.124 1.250,4.624 1.250,4.624 C1.250,4.624 14.750,4.624 14.750,4.624 C14.750,4.624 14.750,3.124 14.750,3.124 ZM14.750,5.874 C14.750,5.874 1.250,5.874 1.250,5.874 C1.250,5.874 1.250,14.124 1.250,14.124 C1.250,14.469 1.530,14.749 1.875,14.749 C1.875,14.749 14.125,14.749 14.125,14.749 C14.470,14.749 14.750,14.469 14.750,14.124 C14.750,14.124 14.750,5.874 14.750,5.874 ZM12.375,9.687 C12.375,9.687 13.625,9.687 13.625,9.687 C13.625,9.687 13.625,10.937 13.625,10.937 C13.625,10.937 12.375,10.937 12.375,10.937 C12.375,10.937 12.375,9.687 12.375,9.687 ZM12.375,7.187 C12.375,7.187 13.625,7.187 13.625,7.187 C13.625,7.187 13.625,8.437 13.625,8.437 C13.625,8.437 12.375,8.437 12.375,8.437 C12.375,8.437 12.375,7.187 12.375,7.187 ZM9.875,12.187 C9.875,12.187 11.125,12.187 11.125,12.187 C11.125,12.187 11.125,13.437 11.125,13.437 C11.125,13.437 9.875,13.437 9.875,13.437 C9.875,13.437 9.875,12.187 9.875,12.187 ZM9.875,9.687 C9.875,9.687 11.125,9.687 11.125,9.687 C11.125,9.687 11.125,10.937 11.125,10.937 C11.125,10.937 9.875,10.937 9.875,10.937 C9.875,10.937 9.875,9.687 9.875,9.687 ZM9.875,7.187 C9.875,7.187 11.125,7.187 11.125,7.187 C11.125,7.187 11.125,8.437 11.125,8.437 C11.125,8.437 9.875,8.437 9.875,8.437 C9.875,8.437 9.875,7.187 9.875,7.187 ZM7.375,12.187 C7.375,12.187 8.625,12.187 8.625,12.187 C8.625,12.187 8.625,13.437 8.625,13.437 C8.625,13.437 7.375,13.437 7.375,13.437 C7.375,13.437 7.375,12.187 7.375,12.187 ZM7.375,9.687 C7.375,9.687 8.625,9.687 8.625,9.687 C8.625,9.687 8.625,10.937 8.625,10.937 C8.625,10.937 7.375,10.937 7.375,10.937 C7.375,10.937 7.375,9.687 7.375,9.687 ZM7.375,7.187 C7.375,7.187 8.625,7.187 8.625,7.187 C8.625,7.187 8.625,8.437 8.625,8.437 C8.625,8.437 7.375,8.437 7.375,8.437 C7.375,8.437 7.375,7.187 7.375,7.187 ZM4.875,12.187 C4.875,12.187 6.125,12.187 6.125,12.187 C6.125,12.187 6.125,13.437 6.125,13.437 C6.125,13.437 4.875,13.437 4.875,13.437 C4.875,13.437 4.875,12.187 4.875,12.187 ZM4.875,9.687 C4.875,9.687 6.125,9.687 6.125,9.687 C6.125,9.687 6.125,10.937 6.125,10.937 C6.125,10.937 4.875,10.937 4.875,10.937 C4.875,10.937 4.875,9.687 4.875,9.687 ZM4.875,7.187 C4.875,7.187 6.125,7.187 6.125,7.187 C6.125,7.187 6.125,8.437 6.125,8.437 C6.125,8.437 4.875,8.437 4.875,8.437 C4.875,8.437 4.875,7.187 4.875,7.187 ZM2.375,12.187 C2.375,12.187 3.625,12.187 3.625,12.187 C3.625,12.187 3.625,13.437 3.625,13.437 C3.625,13.437 2.375,13.437 2.375,13.437 C2.375,13.437 2.375,12.187 2.375,12.187 ZM2.375,9.687 C2.375,9.687 3.625,9.687 3.625,9.687 C3.625,9.687 3.625,10.937 3.625,10.937 C3.625,10.937 2.375,10.937 2.375,10.937 C2.375,10.937 2.375,9.687 2.375,9.687 ZM2.375,7.187 C2.375,7.187 3.625,7.187 3.625,7.187 C3.625,7.187 3.625,8.437 3.625,8.437 C3.625,8.437 2.375,8.437 2.375,8.437 C2.375,8.437 2.375,7.187 2.375,7.187 Z" id="path-1" class="cls-2" fill-rule="evenodd"/>
</svg>
