<svg xmlns="http://www.w3.org/2000/svg" xmlns:xlink="http://www.w3.org/1999/xlink" preserveAspectRatio="xMidYMid" width="16" height="16" viewBox="0 0 16 16">
  <defs>
    <style>

      .cls-2 {
        fill: #727272;
      }
    </style>
  </defs>
  <path d="M7.999,-0.001 C7.999,-0.001 0.228,6.857 0.228,6.857 C-0.040,7.095 -0.069,7.508 0.164,7.782 C0.164,7.782 0.164,7.782 0.164,7.782 C0.398,8.055 0.805,8.084 1.074,7.847 C1.074,7.847 1.360,7.594 1.360,7.594 C1.360,7.594 1.360,14.034 1.360,14.034 C1.360,15.119 2.226,15.999 3.294,15.999 C3.294,15.999 6.903,15.999 6.903,15.999 C6.903,15.999 6.903,10.725 6.903,10.725 C6.903,10.093 7.408,9.579 8.031,9.579 C8.031,9.579 8.031,9.579 8.031,9.579 C8.654,9.579 9.159,10.093 9.159,10.725 C9.159,10.725 9.159,15.999 9.159,15.999 C9.159,15.999 12.704,15.999 12.704,15.999 C13.772,15.999 14.638,15.119 14.638,14.034 C14.638,14.034 14.638,7.594 14.638,7.594 C14.638,7.594 14.924,7.847 14.924,7.847 C15.193,8.084 15.600,8.055 15.833,7.782 C15.833,7.782 15.833,7.782 15.833,7.782 C16.067,7.508 16.038,7.095 15.769,6.857 C15.769,6.857 7.999,-0.001 7.999,-0.001 ZM13.349,14.034 C13.349,14.396 13.060,14.689 12.704,14.689 C12.704,14.689 10.448,14.689 10.448,14.689 C10.448,14.689 10.448,10.725 10.448,10.725 C10.448,9.369 9.366,8.269 8.031,8.269 C8.031,8.269 8.031,8.269 8.031,8.269 C6.696,8.269 5.614,9.369 5.614,10.725 C5.614,10.725 5.614,14.689 5.614,14.689 C5.614,14.689 3.294,14.689 3.294,14.689 C2.938,14.689 2.649,14.396 2.649,14.034 C2.649,14.034 2.649,6.456 2.649,6.456 C2.649,6.456 7.999,1.734 7.999,1.734 C7.999,1.734 13.349,6.456 13.349,6.456 C13.349,6.456 13.349,14.034 13.349,14.034 Z" id="path-1" class="cls-2" fill-rule="evenodd"/>
</svg>
