<svg xmlns="http://www.w3.org/2000/svg" xmlns:xlink="http://www.w3.org/1999/xlink" preserveAspectRatio="xMidYMid" width="7" height="13" viewBox="0 0 5 11">
  <defs>
    <style>

      .cls-2 {
        fill: #8d8d8d;
      }
    </style>
  </defs>
  <path d="M5.005,4.991 C5.005,4.812 4.945,4.633 4.825,4.497 C4.825,4.497 1.060,0.200 1.060,0.200 C0.820,-0.074 0.432,-0.074 0.192,0.200 C-0.047,0.473 -0.047,0.917 0.192,1.190 C0.192,1.190 3.524,4.991 3.524,4.991 C3.524,4.991 0.193,8.794 0.193,8.794 C-0.046,9.067 -0.046,9.510 0.193,9.783 C0.432,10.056 0.821,10.056 1.060,9.783 C1.060,9.783 4.825,5.486 4.825,5.486 C4.945,5.350 5.005,5.170 5.005,4.991 C5.005,4.991 5.005,4.991 5.005,4.991 Z" id="path-1" class="cls-2" fill-rule="evenodd"/>
</svg>
