<svg xmlns="http://www.w3.org/2000/svg" xmlns:xlink="http://www.w3.org/1999/xlink" preserveAspectRatio="xMidYMid" width="7" height="13" viewBox="0 0 5 11">
  <defs>
    <style>

      .cls-2 {
        fill: #8d8d8d;
      }
    </style>
  </defs>
  <path d="M0.015,4.976 C0.015,4.797 0.074,4.619 0.193,4.483 C0.193,4.483 3.934,0.200 3.934,0.200 C4.173,-0.074 4.559,-0.074 4.797,0.200 C5.035,0.472 5.035,0.914 4.797,1.186 C4.797,1.186 1.486,4.976 1.486,4.976 C1.486,4.976 4.796,8.766 4.796,8.766 C5.034,9.038 5.034,9.480 4.796,9.753 C4.558,10.025 4.173,10.025 3.934,9.753 C3.934,9.753 0.193,5.469 0.193,5.469 C0.074,5.334 0.015,5.154 0.015,4.976 C0.015,4.976 0.015,4.976 0.015,4.976 Z" id="path-1" class="cls-2" fill-rule="evenodd"/>
</svg>
