<svg xmlns="http://www.w3.org/2000/svg" xmlns:xlink="http://www.w3.org/1999/xlink" preserveAspectRatio="xMidYMid" width="21" height="20" viewBox="0 0 21 20">
  <defs>
    <style>

      .cls-2 {
        fill: #fff;
      }
    </style>
  </defs>
  <path d="M19.892,18.697 C19.892,18.697 14.082,12.887 14.082,12.887 C15.184,11.526 15.847,9.796 15.847,7.914 C15.847,3.548 12.296,-0.003 7.931,-0.003 C3.565,-0.003 0.014,3.548 0.014,7.914 C0.014,12.279 3.565,15.830 7.931,15.830 C9.814,15.830 11.543,15.167 12.904,14.065 C12.904,14.065 18.714,19.875 18.714,19.875 C18.876,20.038 19.140,20.038 19.303,19.875 C19.303,19.875 19.892,19.286 19.892,19.286 C20.055,19.123 20.055,18.859 19.892,18.697 ZM7.931,14.163 C4.484,14.163 1.681,11.360 1.681,7.914 C1.681,4.467 4.484,1.663 7.931,1.663 C11.377,1.663 14.181,4.467 14.181,7.914 C14.181,11.360 11.377,14.163 7.931,14.163 Z" id="path-1" class="cls-2" fill-rule="evenodd"/>
</svg>
