<svg xmlns="http://www.w3.org/2000/svg" xmlns:xlink="http://www.w3.org/1999/xlink" preserveAspectRatio="xMidYMid" width="130" height="130" viewBox="0 0 130 130">
  <defs>
    <style>

      .cls-3 {
        fill: #bb99b7;
        opacity: 0.2;
      }

      .cls-4 {
        fill: #bb99b7;
        opacity: 0.6;
      }

      .cls-5 {
        fill: #bb99b7;
      }

      .cls-6 {
        fill: #ffffff;
      }
    </style>
  </defs>
  <g id="play-btn">
    <circle id="circle-1" class="cls-3" cx="65" cy="65" r="65"/>
    <circle id="circle-2" class="cls-4" cx="65" cy="65" r="55"/>
    <circle id="circle-3" class="cls-5" cx="65" cy="65" r="45"/>
    <path d="M71.816,63.142 C71.816,63.142 59.992,55.536 59.992,55.536 C59.446,55.185 58.896,54.999 58.438,54.999 C57.554,54.999 57.007,55.666 57.007,56.782 C57.007,56.782 57.007,73.219 57.007,73.219 C57.007,74.334 57.554,74.999 58.436,74.999 C58.894,74.999 59.435,74.813 59.982,74.460 C59.982,74.460 71.812,66.855 71.812,66.855 C72.572,66.366 72.994,65.706 72.994,64.998 C72.994,64.291 72.577,63.631 71.816,63.142 " id="path-1" class="cls-6" fill-rule="evenodd"/>
  </g>
</svg>
